<svg width="16" height="16" viewBox="0 0 16 16" fill="none" xmlns="http://www.w3.org/2000/svg">
<g clip-path="url(#clip0_1466_9920)">
<mask id="mask0_1466_9920" style="mask-type:luminance" maskUnits="userSpaceOnUse" x="0" y="0" width="16" height="16">
<path d="M0.385254 0.320312H15.7453V15.6803H0.385254V0.320312Z" fill="white"/>
</mask>
<g mask="url(#mask0_1466_9920)">
<path d="M6.46654 15.6803C6.22139 15.6812 5.9785 15.6334 5.75197 15.5397C5.52543 15.446 5.31975 15.3082 5.14686 15.1344L0.931179 10.9187C0.757624 10.7462 0.620012 10.5409 0.526305 10.3148C0.432598 10.0888 0.384658 9.84634 0.385259 9.60161C0.385259 9.10176 0.579179 8.63392 0.931179 8.28192L8.04926 1.16385C8.31614 0.895483 8.63361 0.682742 8.98329 0.537948C9.33297 0.393154 9.70791 0.319185 10.0864 0.320325H14.1459C15.0278 0.320325 15.7459 1.03841 15.7459 1.92033V5.97985C15.747 6.35821 15.6729 6.73302 15.5282 7.08259C15.3834 7.43215 15.1707 7.74952 14.9024 8.01632L7.78366 15.1344C7.43166 15.4864 6.96446 15.6803 6.46654 15.6803ZM10.0857 0.960325C9.48734 0.960325 8.92542 1.19329 8.50174 1.61633L1.38366 8.73441C1.15326 8.96545 1.02526 9.27264 1.02526 9.59904C1.02526 9.92801 1.15326 10.2352 1.38366 10.4656L5.59998 14.6819C6.06398 15.1453 6.87102 15.1421 7.33118 14.6819L14.4499 7.56321C14.6584 7.35572 14.8237 7.10894 14.9362 6.83716C15.0486 6.56538 15.1061 6.27399 15.1053 5.97985V1.92033C15.1053 1.39105 14.6745 0.960325 14.1453 0.960325H10.0857Z" fill="#F7F7F7"/>
<path d="M12.2252 5.44023C11.3433 5.44023 10.6252 4.72215 10.6252 3.84023C10.6252 2.95831 11.3433 2.24023 12.2252 2.24023C13.1072 2.24023 13.8252 2.95831 13.8252 3.84023C13.8252 4.72215 13.1072 5.44023 12.2252 5.44023ZM12.2252 2.88023C11.696 2.88023 11.2652 3.31095 11.2652 3.84023C11.2652 4.36951 11.696 4.80023 12.2252 4.80023C12.7545 4.80023 13.1852 4.36951 13.1852 3.84023C13.1852 3.31095 12.7545 2.88023 12.2252 2.88023Z" fill="#F7F7F7"/>
</g>
</g>
<defs>
<clipPath id="clip0_1466_9920">
<rect width="16" height="16" fill="white"/>
</clipPath>
</defs>
</svg>
