<svg width="32" height="32" viewBox="0 0 32 32" fill="none" xmlns="http://www.w3.org/2000/svg">
<g clip-path="url(#clip0_683_13495)">
<path d="M31.826 14.8166C31.8245 13.4872 31.346 12.2024 30.4774 11.1959C29.6088 10.1894 28.4079 9.52803 27.093 9.332V0.677113C27.0913 0.583225 27.0703 0.490687 27.0314 0.405253C26.9924 0.319818 26.9363 0.243314 26.8665 0.180496C26.7967 0.117679 26.7147 0.0698902 26.6256 0.0401026C26.5366 0.0103149 26.4423 -0.000835213 26.3488 0.00734537C26.1768 0.00782283 26.0116 0.0744384 25.8874 0.193392C24.3116 1.70651 22.2116 2.5515 20.0269 2.5515C17.8423 2.5515 15.7423 1.70651 14.1665 0.193392C14.0175 0.0679713 13.8291 -0.00080824 13.6344 -0.00080824C13.4397 -0.00080824 13.2512 0.0679713 13.1023 0.193392C11.5258 1.71091 9.42261 2.55865 7.23439 2.55865C5.04616 2.55865 2.94302 1.71091 1.36648 0.193392C1.24676 0.0758004 1.08764 0.0068488 0.919967 -9.64853e-05C0.826195 -0.00941814 0.731509 0.000933384 0.641966 0.030296C0.552423 0.0596587 0.469993 0.107386 0.399949 0.170426C0.329905 0.233465 0.273788 0.310429 0.235188 0.396396C0.196588 0.482362 0.176355 0.575438 0.175781 0.669671V18.6046C0.175781 26.0464 12.8269 31.7618 13.3628 31.9999C13.9655 32.4315 25.1655 26.7459 26.8548 20.3608C28.2225 20.2154 29.4877 19.5681 30.4059 18.5441C31.3241 17.5201 31.83 16.192 31.826 14.8166ZM19.6511 27.0659C17.751 28.4258 15.7367 29.6185 13.6307 30.6306C8.91997 28.4873 1.28462 23.2036 1.51532 18.6046V2.06874C3.30422 3.34715 5.47029 3.98842 7.66683 3.88993C9.86337 3.79144 11.9634 2.95887 13.6307 1.52548C15.2991 2.95947 17.4004 3.79234 19.5982 3.89083C21.7961 3.98932 23.9634 3.34774 25.7535 2.06874V9.29479C19.2567 10.039 19.0558 19.2222 25.4632 20.3087C24.6074 22.9878 21.9507 25.399 19.6511 27.0659ZM26.2744 19.0287C25.1579 19.0268 24.0877 18.5824 23.2982 17.7929C22.5087 17.0034 22.0643 15.9332 22.0623 14.8166C22.2632 9.25014 30.2855 9.25014 30.4865 14.8166C30.4845 15.9332 30.0401 17.0034 29.2506 17.7929C28.4611 18.5824 27.3909 19.0268 26.2744 19.0287Z" fill="#006139"/>
<path d="M29.1091 13.1645C28.9824 13.039 28.8112 12.9687 28.6329 12.9687C28.4545 12.9687 28.2834 13.039 28.1566 13.1645L26.2663 15.0547L25.5222 14.3105C25.3943 14.1985 25.2286 14.1394 25.0588 14.145C24.8889 14.1506 24.7275 14.2206 24.6074 14.3408C24.4872 14.461 24.4172 14.6224 24.4116 14.7922C24.4059 14.9621 24.4651 15.1278 24.577 15.2556L25.8049 16.4835C25.9305 16.6085 26.1004 16.6787 26.2775 16.6787C26.4546 16.6787 26.6245 16.6085 26.7501 16.4835L29.1091 14.1393C29.1756 14.0767 29.2285 14.0012 29.2647 13.9174C29.3009 13.8335 29.3196 13.7432 29.3196 13.6519C29.3196 13.5606 29.3009 13.4703 29.2647 13.3864C29.2285 13.3026 29.1756 13.2271 29.1091 13.1645ZM13.6301 14.7719C14.5152 14.7307 15.3505 14.3501 15.9623 13.7092C16.5742 13.0682 16.9156 12.2162 16.9156 11.33C16.9156 10.4439 16.5742 9.59189 15.9623 8.95092C15.3505 8.30996 14.5152 7.92935 13.6301 7.88818C9.10541 8.03702 9.10541 14.6305 13.6301 14.7719ZM13.6301 9.22772C14.166 9.25962 14.6695 9.495 15.0377 9.88576C15.4059 10.2765 15.611 10.7931 15.611 11.33C15.611 11.8669 15.4059 12.3836 15.0377 12.7743C14.6695 13.1651 14.166 13.4005 13.6301 13.4324C13.0941 13.4005 12.5906 13.1651 12.2224 12.7743C11.8542 12.3836 11.6492 11.8669 11.6492 11.33C11.6492 10.7931 11.8542 10.2765 12.2224 9.88576C12.5906 9.495 13.0941 9.25962 13.6301 9.22772ZM15.5947 15.3673C15.4853 15.337 15.37 15.3348 15.2594 15.3608C15.1489 15.3869 15.0467 15.4402 14.9622 15.5161C14.597 15.8461 14.1223 16.0288 13.6301 16.0288C13.1379 16.0288 12.6632 15.8461 12.298 15.5161C12.2135 15.4402 12.1112 15.3869 12.0007 15.3608C11.8902 15.3348 11.7749 15.337 11.6654 15.3673C7.01425 16.5803 6.78355 23.9254 12.0524 24.1561H15.2152C20.4766 23.9254 20.2682 16.5803 15.5947 15.3673ZM17.7454 20.7105C17.6346 21.3011 17.3213 21.8346 16.8594 22.219C16.3976 22.6034 15.8161 22.8147 15.2152 22.8166H12.0822C8.56216 22.6752 8.85239 17.7189 11.7473 16.7589C12.3093 17.1511 12.9782 17.3613 13.6636 17.3613C14.3489 17.3613 15.0178 17.1511 15.5798 16.7589C16.3442 17.0627 16.9786 17.6236 17.3739 18.3449C17.7692 19.0662 17.9006 19.9028 17.7454 20.7105Z" fill="#006139"/>
</g>
<defs>
<clipPath id="clip0_683_13495">
<rect width="32" height="32" fill="white"/>
</clipPath>
</defs>
</svg>
