<svg width="32" height="32" viewBox="0 0 32 32" fill="none" xmlns="http://www.w3.org/2000/svg">
<mask id="mask0_439_10963" style="mask-type:luminance" maskUnits="userSpaceOnUse" x="0" y="0" width="32" height="32">
<path d="M31.5 31.5V0.5H0.5V31.5H31.5Z" fill="white" stroke="white"/>
</mask>
<g mask="url(#mask0_439_10963)">
<path d="M31.5316 12.9277C31.5316 10.8417 29.8405 9.15062 27.7544 9.15062H24.6766C23.8136 9.15062 23.1141 8.45106 23.1141 7.58813V4.51026C23.1141 2.4242 21.423 0.733147 19.337 0.733147H18.7305" stroke="#006139" stroke-miterlimit="10" stroke-linejoin="round"/>
<path d="M7.6084 18.1211V2.29549C7.6084 1.43237 8.30771 0.732997 9.17089 0.732997H20.3271C22.1109 0.732997 23.8221 1.44175 25.0833 2.70299L29.5608 7.18048C30.8222 8.44197 31.5308 10.1528 31.5308 11.9367V28.3579C31.5308 29.221 30.8314 29.9204 29.9683 29.9204H11.0434" stroke="#006139" stroke-miterlimit="10" stroke-linecap="round" stroke-linejoin="round"/>
<path d="M14.8838 14.0464H27.5201" stroke="#006139" stroke-miterlimit="10" stroke-linecap="round" stroke-linejoin="round"/>
<path d="M27.5202 16.9741H25.6758" stroke="#006139" stroke-miterlimit="10" stroke-linecap="round" stroke-linejoin="round"/>
<path d="M23.8008 16.9741H11.6201" stroke="#006139" stroke-miterlimit="10" stroke-linecap="round" stroke-linejoin="round"/>
<path d="M11.6201 19.9009H27.5203" stroke="#006139" stroke-miterlimit="10" stroke-linecap="round" stroke-linejoin="round"/>
<path d="M27.5199 22.8281H13.373" stroke="#006139" stroke-miterlimit="10" stroke-linecap="round" stroke-linejoin="round"/>
<path d="M22.8658 25.7559H13.5508" stroke="#006139" stroke-miterlimit="10" stroke-linecap="round" stroke-linejoin="round"/>
<path d="M3.10502 19.4119C5.68376 17.4738 9.36243 17.6788 11.71 20.0257C14.2812 22.5976 14.2812 26.7669 11.71 29.3382C9.13806 31.9094 4.9687 31.9094 2.39752 29.3382C0.0506497 26.9913 -0.154975 23.3138 1.78314 20.7344" stroke="#006139" stroke-miterlimit="10" stroke-linecap="round" stroke-linejoin="round"/>
<path d="M3.72559 25.3927L6.47439 28.1416L9.71194 21.7276" stroke="#006139" stroke-miterlimit="10" stroke-linecap="round" stroke-linejoin="round"/>
<path d="M13.0557 8.40332L14.5516 4.47564C14.5822 4.40089 14.6879 4.40077 14.7186 4.47546L16.201 8.40332" stroke="#006139" stroke-miterlimit="10" stroke-linecap="round" stroke-linejoin="round"/>
<path d="M13.5225 7.4248H15.7422" stroke="#006139" stroke-miterlimit="10" stroke-linecap="round" stroke-linejoin="round"/>
<path d="M17.7227 4.41952L20.5252 8.40332" stroke="#006139" stroke-miterlimit="10" stroke-linecap="round" stroke-linejoin="round"/>
<path d="M20.3279 4.41952L17.5215 8.40332" stroke="#006139" stroke-miterlimit="10" stroke-linecap="round" stroke-linejoin="round"/>
<path d="M10.2842 4.41943H12.4842" stroke="#006139" stroke-miterlimit="10" stroke-linecap="round" stroke-linejoin="round"/>
<path d="M11.3799 4.54671V8.40332" stroke="#006139" stroke-miterlimit="10" stroke-linecap="round" stroke-linejoin="round"/>
</g>
</svg>
